<mxfile host="app.diagrams.net" modified="2023-02-02T14:44:22.713Z" agent="5.0 (Windows)" etag="uQuqQocZx1_aXuuGoLoI" version="20.8.15" type="github">
  <diagram name="Page-1" id="cOOMf614vY6AklTIMAwd">
    <mxGraphModel dx="768" dy="396" grid="1" gridSize="10" guides="1" tooltips="1" connect="1" arrows="1" fold="1" page="1" pageScale="1" pageWidth="827" pageHeight="1169" math="0" shadow="0">
      <root>
        <mxCell id="0" />
        <mxCell id="1" parent="0" />
        <mxCell id="6T4GXOlZeHWErlPOpfDJ-3" style="edgeStyle=orthogonalEdgeStyle;rounded=0;orthogonalLoop=1;jettySize=auto;html=1;" edge="1" parent="1" source="6T4GXOlZeHWErlPOpfDJ-1" target="6T4GXOlZeHWErlPOpfDJ-2">
          <mxGeometry relative="1" as="geometry" />
        </mxCell>
        <mxCell id="6T4GXOlZeHWErlPOpfDJ-1" value="&lt;div&gt;Client&lt;/div&gt;" style="rounded=0;whiteSpace=wrap;html=1;" vertex="1" parent="1">
          <mxGeometry x="354" y="140" width="96" height="50" as="geometry" />
        </mxCell>
        <mxCell id="6T4GXOlZeHWErlPOpfDJ-6" style="edgeStyle=orthogonalEdgeStyle;rounded=0;orthogonalLoop=1;jettySize=auto;html=1;entryX=0.373;entryY=0.011;entryDx=0;entryDy=0;entryPerimeter=0;" edge="1" parent="1" source="6T4GXOlZeHWErlPOpfDJ-2" target="6T4GXOlZeHWErlPOpfDJ-4">
          <mxGeometry relative="1" as="geometry" />
        </mxCell>
        <mxCell id="6T4GXOlZeHWErlPOpfDJ-7" style="edgeStyle=orthogonalEdgeStyle;rounded=0;orthogonalLoop=1;jettySize=auto;html=1;" edge="1" parent="1" source="6T4GXOlZeHWErlPOpfDJ-2" target="6T4GXOlZeHWErlPOpfDJ-5">
          <mxGeometry relative="1" as="geometry" />
        </mxCell>
        <mxCell id="6T4GXOlZeHWErlPOpfDJ-2" value="&lt;div&gt;Project Manager&lt;br&gt;&lt;/div&gt;" style="rounded=0;whiteSpace=wrap;html=1;" vertex="1" parent="1">
          <mxGeometry x="339" y="220" width="126" height="50" as="geometry" />
        </mxCell>
        <mxCell id="6T4GXOlZeHWErlPOpfDJ-4" value="System Analyst" style="rounded=0;whiteSpace=wrap;html=1;" vertex="1" parent="1">
          <mxGeometry x="240" y="320" width="126" height="50" as="geometry" />
        </mxCell>
        <mxCell id="6T4GXOlZeHWErlPOpfDJ-9" style="edgeStyle=orthogonalEdgeStyle;rounded=0;orthogonalLoop=1;jettySize=auto;html=1;" edge="1" parent="1" source="6T4GXOlZeHWErlPOpfDJ-5" target="6T4GXOlZeHWErlPOpfDJ-8">
          <mxGeometry relative="1" as="geometry">
            <Array as="points">
              <mxPoint x="503" y="390" />
              <mxPoint x="373" y="390" />
            </Array>
          </mxGeometry>
        </mxCell>
        <mxCell id="6T4GXOlZeHWErlPOpfDJ-11" style="edgeStyle=orthogonalEdgeStyle;rounded=0;orthogonalLoop=1;jettySize=auto;html=1;" edge="1" parent="1" source="6T4GXOlZeHWErlPOpfDJ-5" target="6T4GXOlZeHWErlPOpfDJ-10">
          <mxGeometry relative="1" as="geometry">
            <Array as="points">
              <mxPoint x="503" y="390" />
              <mxPoint x="590" y="390" />
            </Array>
          </mxGeometry>
        </mxCell>
        <mxCell id="6T4GXOlZeHWErlPOpfDJ-5" value="Team Leader" style="rounded=0;whiteSpace=wrap;html=1;" vertex="1" parent="1">
          <mxGeometry x="440" y="320" width="126" height="50" as="geometry" />
        </mxCell>
        <mxCell id="6T4GXOlZeHWErlPOpfDJ-8" value="System Designer" style="rounded=0;whiteSpace=wrap;html=1;" vertex="1" parent="1">
          <mxGeometry x="310" y="420" width="126" height="50" as="geometry" />
        </mxCell>
        <mxCell id="6T4GXOlZeHWErlPOpfDJ-10" value="System Developer" style="rounded=0;whiteSpace=wrap;html=1;" vertex="1" parent="1">
          <mxGeometry x="520" y="420" width="126" height="50" as="geometry" />
        </mxCell>
      </root>
    </mxGraphModel>
  </diagram>
</mxfile>
